<svg version="1.1" id="Layer_1" xmlns="http://www.w3.org/2000/svg" xmlns:xlink="http://www.w3.org/1999/xlink" x="0px" y="0px" width="100%" viewBox="0 0 1904 615" enable-background="new 0 0 1904 615" xml:space="preserve">

<path fill="#06ADFB" opacity="1.000000" stroke="none" d="
M136.004868,408.838562 
	C118.068787,408.731415 100.060089,410.444672 82.401337,405.310791 
	C16.694351,386.208069 -8.873663,306.246704 34.124825,253.003082 
	C52.211872,230.606461 76.249519,218.237549 105.077728,217.304047 
	C133.043182,216.398468 161.058609,217.036194 189.052094,216.996704 
	C190.862198,216.994156 192.672287,216.996384 195.152405,216.996384 
	C195.152405,214.926208 195.152374,213.168671 195.152405,211.411148 
	C195.152985,185.083359 194.764359,158.748474 195.243896,132.429413 
	C195.992874,91.323685 214.849045,61.256119 252.032013,43.372589 
	C287.546936,26.291321 333.723541,35.711823 360.456238,64.573959 
	C378.412567,83.960648 387.351379,106.593040 387.197510,133.005737 
	C387.036346,160.665375 387.170746,188.326736 387.129730,216.916061 
	C387.023468,228.167297 386.963409,238.489792 386.657166,249.131638 
	C385.331024,256.171570 384.551392,262.956818 383.120331,269.601807 
	C376.016266,302.588409 360.887695,331.402954 337.240570,355.515381 
	C324.513428,368.492920 310.424225,379.834412 293.942780,387.577148 
	C289.548401,378.011566 285.191772,368.811310 281.048645,359.357910 
	C308.870758,342.857635 330.039154,320.751190 342.955475,291.172150 
	C348.706940,278.001099 353.071106,264.441803 354.164673,249.591629 
	C354.852692,241.845169 355.517303,234.483566 355.836853,227.106995 
	C355.969025,224.055923 355.361694,220.972794 355.191162,217.450104 
	C355.295593,187.504044 355.858459,157.999008 355.164948,128.523529 
	C354.254120,89.810745 319.191010,61.390514 280.887360,67.440094 
	C250.490097,72.240952 227.290268,98.798866 227.081207,129.724655 
	C226.826630,167.382355 227.009552,205.042999 227.003296,242.702377 
	C227.002975,244.632477 227.003235,246.562576 227.003235,248.847107 
	C224.538101,248.847107 222.731247,248.847107 220.924377,248.847107 
	C184.264755,248.847382 147.604675,248.734161 110.945686,248.887024 
	C85.631577,248.992569 65.966293,259.518311 53.087017,281.658539 
	C29.129107,322.843628 58.927998,376.008606 106.534935,377.068970 
	C116.023849,377.280304 125.517471,377.280151 135.007828,377.821747 
	C135.339447,388.456848 135.672165,398.647705 136.004868,408.838562 
z" data-index="1" style="visibility: visible; opacity: 1;"></path>
<path fill="#06ADFB" opacity="1.000000" stroke="none" d="
M456.992279,217.162354 
	C477.546539,215.983292 497.760162,217.424042 516.275452,227.383743 
	C548.831665,244.896286 567.571228,271.798370 568.980286,309.238861 
	C570.401855,347.011261 553.951965,375.720734 522.200928,395.621429 
	C508.420593,404.258575 493.058685,408.750732 476.702026,408.865234 
	C448.878448,409.060028 421.052917,408.972443 393.228210,409.003082 
	C391.420563,409.005066 389.612946,409.003326 387.161407,409.003326 
	C387.161407,411.118225 387.163727,412.887817 387.161041,414.657410 
	C387.118011,442.815094 387.497681,470.981293 386.934113,499.128571 
	C386.032867,544.143677 350.877350,583.449402 306.270508,590.121948 
	C259.024536,597.189270 214.669159,570.312988 200.120865,524.828247 
	C196.832413,514.546997 195.628815,503.274658 195.368332,492.412903 
	C194.709366,464.937012 195.132156,437.435181 195.086517,409.012543 
	C195.338486,399.378723 195.672195,390.677094 195.864288,381.972351 
	C195.894379,380.609283 195.280914,379.232056 195.133652,377.509827 
	C195.548218,376.396118 195.926804,375.649933 196.020996,374.869415 
	C200.105331,341.025574 212.239792,310.500854 233.564911,283.768890 
	C248.064850,265.592621 265.195496,250.533813 285.970215,240.132660 
	C286.751770,242.156250 287.445770,243.819916 288.219666,245.445557 
	C291.811371,252.990326 295.425232,260.524567 298.830505,268.332947 
	C290.387115,274.749573 281.553528,280.250488 274.008728,287.158905 
	C247.904129,311.061676 232.455429,340.700897 228.127258,376.414978 
	C227.772934,387.318054 227.475906,397.792908 227.131348,408.717468 
	C227.059433,437.998413 227.075089,466.829681 227.000336,495.660767 
	C226.909912,530.534546 257.020996,562.995117 297.515320,559.171997 
	C329.052460,556.194580 354.598633,529.977722 355.130371,498.440460 
	C355.776489,460.119812 355.367676,421.781372 355.414795,383.450623 
	C355.417175,381.496155 355.415100,379.541687 355.415100,377.153656 
	C357.746368,377.153656 359.544525,377.153656 361.342682,377.153656 
	C397.674408,377.153625 434.006226,377.189362 470.337769,377.110504 
	C475.146057,377.100037 480.020599,376.908752 484.749664,376.116119 
	C514.428467,371.141846 536.613525,345.523346 537.769287,315.152344 
	C538.898560,285.479218 518.249695,257.564606 489.219299,251.206329 
	C478.788818,248.921844 467.752350,249.404083 456.993286,248.178558 
	C456.993500,237.543106 456.992889,227.352737 456.992279,217.162354 
z" data-index="2" style="visibility: visible; opacity: 1;"></path>
<path fill="#06ADFB" opacity="1.000000" stroke="none" d="
M613.466309,432.918243 
	C613.466370,375.610870 613.529114,318.790466 613.362854,261.970703 
	C613.347290,256.644623 614.509460,254.098663 620.257690,252.833099 
	C640.535645,248.368607 660.940674,245.997986 681.692871,246.977097 
	C716.375854,248.613480 742.019531,272.558746 746.221375,307.091248 
	C748.320618,324.342987 747.444092,341.270935 741.404053,357.763550 
	C729.702515,389.714966 701.118591,400.965576 670.769165,395.529205 
	C665.600525,394.603363 660.561584,392.953094 654.629028,391.422424 
	C654.629028,393.719513 654.628967,395.475555 654.629028,397.231567 
	C654.629395,410.895081 654.417175,424.563690 654.744385,438.219360 
	C654.860535,443.068329 653.161987,444.108063 648.694641,443.961395 
	C639.040588,443.644531 629.354675,443.548981 619.710205,443.987701 
	C614.399658,444.229279 612.807373,442.245117 613.440247,437.400909 
	C613.611511,436.090332 613.466125,434.738342 613.466309,432.918243 
M672.418579,281.861206 
	C667.928650,281.942932 663.436890,281.972656 658.949341,282.124725 
	C656.000427,282.224609 654.559692,283.576202 654.574646,286.829865 
	C654.675232,308.790253 654.533691,330.752411 654.795654,352.710175 
	C654.817688,354.554962 656.905823,357.531311 658.582947,357.994568 
	C664.920715,359.745087 671.473938,361.634369 677.966736,361.708527 
	C690.609863,361.853027 698.738647,355.732025 702.644348,343.796661 
	C707.052979,330.324188 707.174622,316.569550 702.569397,303.125031 
	C697.732666,289.004639 687.793762,282.075348 672.418579,281.861206 
z" data-index="3" style="visibility: visible; opacity: 1;"></path>
<path fill="#06ADFB" opacity="1.000000" stroke="none" d="
M1877.726807,384.942810 
	C1876.822754,386.648010 1876.101807,388.739716 1874.850830,389.129303 
	C1847.628418,397.606354 1820.095825,401.029144 1792.685059,390.662659 
	C1770.466309,382.259705 1757.970337,365.048920 1753.259521,342.182129 
	C1749.447876,323.679626 1750.949707,305.477875 1757.950195,287.795227 
	C1767.522095,263.617706 1791.721924,247.214584 1817.755005,246.757828 
	C1833.654297,246.478851 1848.555786,249.010315 1861.594238,258.756409 
	C1874.102539,268.106079 1881.436157,280.938293 1883.821655,295.962097 
	C1885.684204,307.693146 1885.290527,319.778229 1885.986816,331.700867 
	C1886.226562,335.805084 1883.402710,335.188049 1880.965820,335.189331 
	C1855.315674,335.202911 1829.665405,335.198120 1804.015259,335.198425 
	C1800.762939,335.198456 1797.510498,335.198456 1794.255371,335.198456 
	C1794.535034,345.146240 1802.086060,354.080292 1812.482056,358.032501 
	C1823.763672,362.321411 1835.436157,361.781738 1846.992188,360.567322 
	C1855.345581,359.689423 1863.544678,357.342957 1872.727051,355.464325 
	C1874.306885,364.768951 1875.984985,374.652740 1877.726807,384.942810 
M1833.120605,283.103271 
	C1813.507812,274.950073 1795.412964,286.243530 1794.175781,306.742676 
	C1811.673828,306.742676 1829.165527,306.742676 1847.022339,306.742676 
	C1845.692993,296.778046 1842.641602,288.485107 1833.120605,283.103271 
z" data-index="4" style="visibility: visible; opacity: 1;"></path>
<path fill="#06ADFB" opacity="1.000000" stroke="none" d="
M1549.072998,281.646057 
	C1534.572021,279.451752 1520.752075,281.309448 1507.144775,284.762451 
	C1502.799316,285.865143 1500.874878,285.669617 1500.366333,280.625427 
	C1499.550293,272.533478 1497.920044,264.525848 1496.959229,256.443909 
	C1496.813232,255.214966 1498.194824,252.820709 1499.243774,252.577316 
	C1524.910034,246.622192 1550.729492,242.919052 1576.496216,251.629929 
	C1593.039185,257.222595 1602.104980,269.649841 1604.846436,286.527161 
	C1606.091187,294.191010 1606.378296,302.069733 1606.437378,309.855988 
	C1606.627319,334.840485 1606.443481,359.827728 1606.581299,384.812927 
	C1606.600830,388.360931 1605.777832,390.149231 1602.003052,390.859863 
	C1575.410645,395.866119 1548.705078,399.567688 1521.722900,394.828094 
	C1498.580566,390.762909 1483.629028,376.737701 1482.982788,351.020325 
	C1482.311401,324.300293 1499.407593,310.496704 1521.437866,305.962524 
	C1534.940308,303.183502 1548.537720,303.199493 1562.156494,305.161133 
	C1563.595459,305.368439 1565.057861,305.413940 1566.452637,305.529785 
	C1569.218750,293.900726 1561.938232,283.895935 1549.072998,281.646057 
M1544.705322,364.900421 
	C1550.863403,364.759735 1557.041992,364.851257 1563.164795,364.310883 
	C1564.648438,364.179962 1567.086426,362.016693 1567.146484,360.699707 
	C1567.517578,352.552185 1567.440552,344.376465 1567.215698,336.218323 
	C1567.183716,335.060181 1565.687256,333.134796 1564.616333,332.938080 
	C1554.221558,331.028992 1543.775024,330.596527 1533.633423,334.193024 
	C1526.503784,336.721405 1523.675171,341.648010 1523.951538,349.783844 
	C1524.182495,356.581909 1527.595581,361.152100 1534.481323,363.227264 
	C1537.471802,364.128479 1540.665649,364.354370 1544.705322,364.900421 
z" data-index="5" style="visibility: visible; opacity: 1;"></path>
<path fill="#06ADFB" opacity="1.000000" stroke="none" d="
M1001.596558,272.473816 
	C1006.048645,281.671173 1007.706116,291.152100 1007.749695,300.871033 
	C1007.875183,328.860901 1007.720337,356.852081 1007.885437,384.841553 
	C1007.907104,388.505737 1006.956787,390.134094 1003.260193,390.836243 
	C976.666077,395.887787 949.951111,399.574585 922.964111,394.824921 
	C899.685852,390.727997 884.848389,376.861755 884.197388,351.050690 
	C883.520752,324.226440 900.474915,310.568481 922.624146,305.967224 
	C936.122559,303.163086 949.750488,303.056305 963.335327,305.248383 
	C967.807617,305.970001 968.925293,304.788696 968.274597,300.355621 
	C966.406677,287.628845 958.822388,280.591156 944.270508,280.991760 
	C931.885193,281.332733 919.514099,283.310883 907.218567,285.120514 
	C903.490479,285.669189 902.248169,285.339752 901.781189,281.450867 
	C900.810364,273.366272 899.410400,265.328430 898.005676,257.303040 
	C897.452454,254.142136 898.642700,252.758575 901.617615,252.063843 
	C922.533569,247.179428 943.643127,244.829117 964.999023,248.209991 
	C980.590759,250.678329 993.925415,257.093628 1001.596558,272.473816 
M968.738770,350.480377 
	C968.737122,345.992340 968.978760,341.483459 968.596680,337.028046 
	C968.469727,335.548279 966.941406,333.205505 965.712646,332.959198 
	C956.033691,331.019012 946.244080,330.750580 936.685303,333.539215 
	C928.133911,336.033966 924.743774,341.118652 925.057678,349.738678 
	C925.329468,357.203857 929.623779,362.481171 937.959045,363.869476 
	C944.128052,364.897064 950.524597,364.952423 956.807373,364.825165 
	C971.692627,364.523743 968.362061,364.614929 968.736755,352.464539 
	C968.747009,352.132385 968.738342,351.799683 968.738770,350.480377 
z" data-index="6" style="visibility: visible; opacity: 1;"></path>
<path fill="#06ADFB" opacity="1.000000" stroke="none" d="
M1240.231567,395.876587 
	C1232.785034,393.834564 1225.415405,392.644470 1218.842407,389.685059 
	C1204.336304,383.153931 1196.933594,371.168945 1196.113403,355.415558 
	C1195.796021,349.319946 1195.765991,342.928375 1197.220947,337.073181 
	C1201.971191,317.956726 1216.565918,309.806854 1234.313721,305.979034 
	C1247.963135,303.035126 1261.753784,303.186188 1275.537842,305.257233 
	C1276.799316,305.446777 1278.083496,305.486542 1279.309204,305.591736 
	C1281.738403,294.475464 1274.800049,284.200745 1263.779907,281.959320 
	C1251.616333,279.485260 1239.573608,280.963562 1227.560425,282.989716 
	C1223.335571,283.702240 1219.183838,284.846832 1214.311523,285.949646 
	C1213.491333,281.363434 1212.649414,277.036163 1211.956543,272.685181 
	C1211.119751,267.430756 1210.649048,262.105530 1209.550781,256.910126 
	C1208.933472,253.991074 1210.016479,252.826096 1212.467773,252.272339 
	C1236.198486,246.911484 1260.039185,243.838104 1284.111328,249.935135 
	C1301.670166,254.382507 1312.743774,265.576477 1316.997314,283.192261 
	C1318.160645,288.010132 1318.972046,293.042847 1319.003174,297.982910 
	C1319.188965,327.479004 1319.100586,356.976837 1319.094727,386.474091 
	C1319.094482,387.457794 1318.992310,388.441467 1318.917114,389.792297 
	C1293.039429,395.520538 1267.088379,398.524384 1240.231567,395.876587 
M1242.520752,361.131348 
	C1253.816040,367.171783 1265.846802,364.813568 1277.696655,364.010437 
	C1278.584595,363.950226 1279.991699,361.727264 1280.025146,360.479370 
	C1280.239136,352.499939 1280.261353,344.508057 1280.009521,336.530853 
	C1279.969360,335.257111 1278.411987,333.168396 1277.252197,332.929199 
	C1267.893188,330.999176 1258.397217,330.816101 1249.139038,333.218475 
	C1235.569458,336.739624 1232.011353,350.787720 1242.520752,361.131348 
z" data-index="7" style="visibility: visible; opacity: 1;"></path>
<path fill="#06ADFB" opacity="1.000000" stroke="none" d="
M1090.545898,282.071381 
	C1085.850464,282.164520 1085.186646,284.646057 1085.200195,288.377960 
	C1085.319580,321.034058 1085.270020,353.690765 1085.270386,386.347290 
	C1085.270386,388.329132 1085.270386,390.310944 1085.270386,392.710419 
	C1071.565063,392.710419 1058.209106,392.710419 1044.216309,392.710419 
	C1044.216309,390.684174 1044.216309,388.898529 1044.216309,387.112885 
	C1044.216431,344.959320 1044.301636,302.805328 1044.101318,260.652710 
	C1044.078125,255.787262 1045.783813,254.083054 1050.286255,253.028030 
	C1072.155762,247.903458 1094.314941,245.449249 1116.667480,247.152512 
	C1143.070435,249.164429 1162.733276,261.623444 1167.133423,292.982361 
	C1168.100586,299.876221 1168.634888,306.884155 1168.682129,313.844238 
	C1168.859741,339.981201 1168.753418,366.120087 1168.753418,392.692566 
	C1155.131104,392.692566 1141.780273,392.692566 1127.948730,392.692566 
	C1127.948730,391.147003 1127.948853,389.698608 1127.948853,388.250183 
	C1127.948730,365.090698 1128.186035,341.927429 1127.815063,318.773895 
	C1127.690918,311.029602 1126.641724,303.163818 1124.883301,295.617340 
	C1122.801880,286.684509 1116.177002,282.099121 1106.985718,281.902435 
	C1101.659668,281.788483 1096.326782,281.988922 1090.545898,282.071381 
z" data-index="8" style="visibility: visible; opacity: 1;"></path>
<path fill="#06ADFB" opacity="1.000000" stroke="none" d="
M1458.797485,269.836945 
	C1457.486572,274.728119 1456.030640,279.173889 1455.149048,283.730774 
	C1454.546631,286.844635 1453.289429,286.758606 1450.650146,286.191803 
	C1443.045410,284.558563 1435.385254,282.465210 1427.681396,282.149353 
	C1407.391724,281.317413 1395.009033,291.517853 1391.573486,311.678741 
	C1389.947998,321.217682 1390.225464,330.944031 1393.253540,340.339447 
	C1397.188721,352.549561 1407.252808,360.230652 1420.465332,361.033661 
	C1432.508911,361.765625 1444.444580,361.149384 1455.911255,356.965240 
	C1458.888916,355.878723 1459.655151,356.825226 1460.109009,359.642792 
	C1461.483643,368.175018 1462.923096,376.706665 1464.726196,385.155579 
	C1465.549561,389.014191 1463.661621,390.188599 1460.670166,391.144226 
	C1442.091797,397.079193 1423.194580,398.501465 1404.000854,394.997986 
	C1384.882446,391.508240 1369.374634,382.280487 1359.482300,365.180054 
	C1343.831299,338.124939 1344.305176,293.886688 1368.949585,268.168549 
	C1380.568481,256.043304 1394.954224,248.967087 1411.517090,247.264114 
	C1427.002441,245.671951 1442.426025,246.665161 1457.316040,252.151031 
	C1461.637939,253.743332 1462.999023,255.934326 1461.357666,260.297913 
	C1460.251953,263.237488 1459.698120,266.384644 1458.797485,269.836945 
z" data-index="9" style="visibility: visible; opacity: 1;"></path>
<path fill="#06ADFB" opacity="1.000000" stroke="none" d="
M819.279663,348.000061 
	C819.279724,363.126068 819.279724,377.752045 819.279724,392.553894 
	C817.937195,392.791504 816.993408,393.101044 816.048706,393.104004 
	C804.889954,393.138947 793.729858,393.041016 782.572815,393.184784 
	C779.425171,393.225342 778.163940,392.385498 778.171265,388.997375 
	C778.263245,346.360626 778.260803,303.723541 778.169739,261.086792 
	C778.163208,258.006256 779.387207,256.614532 782.129517,255.734283 
	C809.516052,246.943771 837.249756,243.515671 865.683044,250.010803 
	C872.092285,251.474899 872.209473,251.473114 870.974976,257.734406 
	C869.151367,266.983978 867.229309,276.214172 865.485718,284.781647 
	C854.815613,283.777802 844.661438,282.289795 834.472290,281.989075 
	C819.289978,281.541046 819.279419,281.897583 819.279419,297.035248 
	C819.279419,313.856842 819.279541,330.678436 819.279663,348.000061 
z" data-index="10" style="visibility: visible; opacity: 1;"></path>
<path fill="#06ADFB" opacity="1.000000" stroke="none" d="
M1684.161621,291.143555 
	C1684.161621,325.229858 1684.161621,358.834259 1684.161621,392.782166 
	C1670.342651,392.782166 1657.102905,392.782166 1643.307617,392.782166 
	C1643.221802,390.960999 1643.066528,389.195679 1643.065918,387.430328 
	C1643.052368,345.781555 1643.135254,304.132416 1642.938232,262.484558 
	C1642.917358,258.078430 1644.558594,256.407410 1648.405396,255.187988 
	C1668.431030,248.839676 1688.887695,245.618118 1709.876099,246.988464 
	C1717.466797,247.484070 1724.987915,249.173462 1732.514282,250.472046 
	C1735.784058,251.036255 1737.065186,252.622498 1736.142212,256.431976 
	C1733.803711,266.084015 1732.053223,275.878540 1730.320312,284.375580 
	C1717.791992,283.562805 1705.945679,282.791077 1694.098389,282.034058 
	C1693.436523,281.991791 1692.763916,282.035889 1692.101685,282.097961 
	C1684.318604,282.827576 1684.158936,283.003143 1684.161621,291.143555 
z" data-index="11" style="visibility: visible; opacity: 1;"></path>
<path fill="#06A0E8" opacity="1.000000" stroke="none" d="
M456.532471,217.094604 
	C456.992889,227.352737 456.993500,237.543106 456.536835,248.268097 
	C451.715546,248.747070 447.351501,248.691437 442.989136,248.189972 
	C442.991058,237.551163 442.991333,227.358170 442.991577,217.165192 
	C447.351929,217.119064 451.712280,217.072952 456.532471,217.094604 
z" data-index="12" style="visibility: visible;"></path>
<path fill="#0391D4" opacity="1.000000" stroke="none" d="
M160.996368,408.840057 
	C156.972275,408.883057 152.948166,408.926056 148.463745,408.444275 
	C148.006088,397.733978 148.008774,387.548431 148.464355,377.276764 
	C152.612030,377.242340 156.306778,377.294067 160.016220,377.747253 
	C160.352722,380.588043 160.914459,383.023682 160.951996,385.467377 
	C161.071625,393.256653 160.996353,401.048950 160.996368,408.840057 
z" data-index="13"></path>
<path fill="#036C9E" opacity="1.000000" stroke="none" d="
M194.965027,377.861359 
	C195.280914,379.232056 195.894379,380.609283 195.864288,381.972351 
	C195.672195,390.677094 195.338486,399.378723 195.013855,408.549774 
	C190.959518,409.001801 186.942749,408.985413 182.466064,408.440857 
	C182.007309,397.999146 182.008453,388.085663 182.466492,378.101471 
	C186.937271,377.974304 190.951141,377.917847 194.965027,377.861359 
z" data-index="14" style="visibility: visible; opacity: 1;"></path>
<path fill="#06A0E8" opacity="1.000000" stroke="none" d="
M148.011444,377.362915 
	C148.008774,387.548431 148.006088,397.733978 148.006409,408.377197 
	C144.312012,408.881195 140.614624,408.927490 136.461060,408.906158 
	C135.672165,398.647705 135.339447,388.456848 135.462677,377.731842 
	C139.949570,377.252777 143.980515,377.307861 148.011444,377.362915 
z" data-index="15"></path>
<path fill="#026898" opacity="1.000000" stroke="none" d="
M386.903381,248.812317 
	C386.963409,238.489792 387.023468,228.167297 387.156067,217.378204 
	C390.847321,216.950439 394.466034,216.989273 398.541443,217.554504 
	C398.992096,228.278885 398.986023,238.476852 398.527588,248.758331 
	C394.351288,248.831970 390.627350,248.822144 386.903381,248.812317 
z" data-index="16" style="visibility: visible;"></path>
<path fill="#0391D4" opacity="1.000000" stroke="none" d="
M442.535522,217.098511 
	C442.991333,227.358170 442.991058,237.551163 442.538696,248.275864 
	C438.722107,248.753540 435.357574,248.699493 431.994141,248.207062 
	C431.662842,237.567093 431.330444,227.365524 430.998047,217.163971 
	C434.691833,217.119934 438.385651,217.075882 442.535522,217.098511 
z" data-index="17" style="visibility: visible;"></path>
<path fill="#037DB7" opacity="1.000000" stroke="none" d="
M409.997101,217.164566 
	C413.360504,217.118958 416.723907,217.073349 420.542175,217.553909 
	C420.993042,228.272903 420.989075,238.465714 420.534729,248.743286 
	C416.718689,248.774582 413.353088,248.721115 409.990051,248.219833 
	C409.994141,237.569534 409.995605,227.367050 409.997101,217.164566 
z" data-index="18" style="visibility: visible;"></path>
<path fill="#0474A9" opacity="1.000000" stroke="none" d="
M409.543396,217.094864 
	C409.995605,227.367050 409.994141,237.569534 409.539612,248.305786 
	C405.717682,248.784653 402.348816,248.729752 398.979919,248.674835 
	C398.986023,238.476852 398.992096,228.278885 398.995422,217.623016 
	C402.358368,217.118484 405.724030,217.071823 409.543396,217.094864 
z" data-index="19" style="visibility: visible;"></path>
<path fill="#0589C7" opacity="1.000000" stroke="none" d="
M161.450882,408.909546 
	C160.996353,401.048950 161.071625,393.256653 160.951996,385.467377 
	C160.914459,383.023682 160.352722,380.588043 160.425812,377.674408 
	C164.551178,377.520935 168.281662,377.841766 172.007614,378.621033 
	C172.006561,388.998688 172.010025,398.917877 172.013489,408.837097 
	C168.644119,408.884399 165.274765,408.931732 161.450882,408.909546 
z" data-index="20" style="visibility: visible; opacity: 1;"></path>
<path fill="#0589C7" opacity="1.000000" stroke="none" d="
M420.985138,248.658539 
	C420.989075,238.465714 420.993042,228.272903 420.994049,217.622284 
	C424.026825,217.117813 427.062561,217.071167 430.548157,217.094238 
	C431.330444,227.365524 431.662842,237.567093 431.543762,248.295990 
	C427.723267,248.768402 424.354187,248.713470 420.985138,248.658539 
z" data-index="21" style="visibility: visible;"></path>
<path fill="#0474A9" opacity="1.000000" stroke="none" d="
M172.463135,408.901978 
	C172.010025,398.917877 172.006561,388.998688 172.457367,378.556244 
	C175.944290,378.079407 178.976944,378.125763 182.009598,378.172150 
	C182.008453,388.085663 182.007309,397.999146 182.008545,408.370026 
	C178.978210,408.873901 175.945511,408.920380 172.463135,408.901978 
z" data-index="22"></path>

<path fill="#FEFFFF" opacity="1.000000" stroke="none" d="
M420.534729,248.743286 
	C424.354187,248.713470 427.723267,248.768402 431.542664,248.734406 
	C435.357574,248.699493 438.722107,248.753540 442.537048,248.721680 
	C447.351501,248.691437 451.715546,248.747070 456.536011,248.713181 
	C467.752350,249.404083 478.788818,248.921844 489.219299,251.206329 
	C518.249695,257.564606 538.898560,285.479218 537.769287,315.152344 
	C536.613525,345.523346 514.428467,371.141846 484.749664,376.116119 
	C480.020599,376.908752 475.146057,377.100037 470.337769,377.110504 
	C434.006226,377.189362 397.674408,377.153625 361.342682,377.153656 
	C359.544525,377.153656 357.746368,377.153656 355.415100,377.153656 
	C355.415100,379.541687 355.417175,381.496155 355.414795,383.450623 
	C355.367676,421.781372 355.776489,460.119812 355.130371,498.440460 
	C354.598633,529.977722 329.052460,556.194580 297.515320,559.171997 
	C257.020996,562.995117 226.909912,530.534546 227.000336,495.660767 
	C227.075089,466.829681 227.059433,437.998413 227.559692,408.685669 
	C233.673019,407.350189 239.310440,406.496277 245.331650,405.676208 
	C249.851151,404.617767 253.986893,403.525513 258.527466,402.400970 
	C262.968964,400.954712 267.005646,399.540710 271.423340,398.106018 
	C275.867126,396.334869 279.929901,394.584442 284.338562,392.800446 
	C287.783142,391.158752 290.881836,389.550598 293.980560,387.942444 
	C310.424225,379.834412 324.513428,368.492920 337.240570,355.515381 
	C360.887695,331.402954 376.016266,302.588409 383.120331,269.601807 
	C384.551392,262.956818 385.331024,256.171570 386.657166,249.131653 
	C390.627350,248.822144 394.351288,248.831970 398.527588,248.758331 
	C402.348816,248.729752 405.717682,248.784653 409.537048,248.753601 
	C413.353088,248.721115 416.718689,248.774582 420.534729,248.743286 
z" data-index="24" style="visibility: hidden; opacity: 1;"></path>

<path fill="#0474A9" opacity="1.000000" stroke="none" d="
M354.164673,249.591644 
	C353.047577,250.054565 352.092957,250.138672 350.382629,250.131714 
	C348.419464,250.320938 347.212006,250.601242 346.004517,250.881531 
	C345.845123,250.939438 345.685699,250.997360 345.229675,250.653931 
	C340.286102,240.879593 335.639160,231.506592 330.992188,222.133606 
	C338.728058,220.733536 346.463928,219.333466 354.645264,217.918823 
	C355.361694,220.972794 355.969025,224.055923 355.836853,227.106995 
	C355.517303,234.483566 354.852692,241.845169 354.164673,249.591644 
z" data-index="26" style="visibility: visible; opacity: 1;"></path>
<path fill="#06A0E8" opacity="1.000000" stroke="none" d="
M270.838257,364.457489 
	C273.939972,362.908813 277.041687,361.360138 280.489288,359.711273 
	C285.191772,368.811310 289.548401,378.011566 293.942780,387.577118 
	C290.881836,389.550598 287.783142,391.158752 284.294495,392.452026 
	C279.549133,382.910583 275.193695,373.684052 270.838257,364.457489 
z" data-index="27" style="visibility: visible; opacity: 1;"></path>
<path fill="#036C9E" opacity="1.000000" stroke="none" d="
M228.127258,376.414978 
	C229.498428,375.903839 230.812317,375.820923 232.551697,376.167480 
	C236.407715,384.252594 239.894791,391.883850 243.228851,399.581329 
	C244.056229,401.491516 244.388184,403.616241 244.947876,405.642365 
	C239.310440,406.496277 233.673019,407.350189 227.607224,408.235901 
	C227.475906,397.792908 227.772934,387.318054 228.127258,376.414978 
z" data-index="28" style="visibility: visible;"></path>
<path fill="#06A0E8" opacity="1.000000" stroke="none" d="
M308.981415,262.900177 
	C305.895691,264.580597 302.809937,266.261047 299.377686,268.002014 
	C295.425232,260.524567 291.811371,252.990326 288.219666,245.445557 
	C287.445770,243.819916 286.751770,242.156250 285.970215,240.132660 
	C288.980896,238.099442 292.042358,236.443665 295.601013,235.031464 
	C298.393433,239.835800 300.795990,244.346481 302.953491,248.971481 
	C305.091370,253.554398 306.982208,258.252563 308.981415,262.900177 
z" data-index="29" style="visibility: visible; opacity: 1;"></path>

<path fill="#FCFEFF" opacity="1.000000" stroke="none" d="
M1833.452759,283.288147 
	C1842.641602,288.485107 1845.692993,296.778046 1847.022339,306.742676 
	C1829.165527,306.742676 1811.673828,306.742676 1794.175781,306.742676 
	C1795.412964,286.243530 1813.507812,274.950073 1833.452759,283.288147 
z" data-index="31" style="visibility: hidden; opacity: 1;"></path>

<path fill="#FCFEFF" opacity="1.000000" stroke="none" d="
M968.738647,350.973816 
	C968.738342,351.799683 968.747009,352.132385 968.736755,352.464539 
	C968.362061,364.614929 971.692627,364.523743 956.807373,364.825165 
	C950.524597,364.952423 944.128052,364.897064 937.959045,363.869476 
	C929.623779,362.481171 925.329468,357.203857 925.057678,349.738678 
	C924.743774,341.118652 928.133911,336.033966 936.685303,333.539215 
	C946.244080,330.750580 956.033691,331.019012 965.712646,332.959198 
	C966.941406,333.205505 968.469727,335.548279 968.596680,337.028046 
	C968.978760,341.483459 968.737122,345.992340 968.738647,350.973816 
z" data-index="33" style="visibility: hidden; opacity: 1;"></path>

<path fill="#037DB7" opacity="1.000000" stroke="none" d="
M330.600281,222.108322 
	C335.639160,231.506592 340.286102,240.879593 344.979034,250.610413 
	C340.954010,251.998062 336.883057,253.027893 332.407288,253.668076 
	C329.694427,248.382080 327.360046,243.497925 325.086029,238.585815 
	C323.028076,234.140350 321.036041,229.664383 319.014893,225.201889 
	C322.746063,224.162277 326.477234,223.122650 330.600281,222.108322 
z" data-index="35" style="visibility: visible; opacity: 1;"></path>
<path fill="#0696DB" opacity="1.000000" stroke="none" d="
M309.339783,262.869141 
	C306.982208,258.252563 305.091370,253.554398 302.953491,248.971481 
	C300.795990,244.346481 298.393433,239.835800 295.949310,234.920181 
	C299.628571,232.793945 303.456726,231.022583 307.653503,229.595825 
	C310.722290,235.715225 313.425659,241.488525 316.121429,247.265366 
	C317.762299,250.781494 319.391541,254.303055 321.026001,257.822174 
	C317.250061,259.494171 313.474121,261.166138 309.339783,262.869141 
z" data-index="36" style="visibility: visible; opacity: 1;"></path>
<path fill="#0589C7" opacity="1.000000" stroke="none" d="
M321.385803,257.804993 
	C319.391541,254.303055 317.762299,250.781494 316.121429,247.265366 
	C313.425659,241.488525 310.722290,235.715225 308.013672,229.576736 
	C311.429504,227.876389 314.853851,226.539749 318.646545,225.202484 
	C321.036041,229.664383 323.028076,234.140350 325.086029,238.585815 
	C327.360046,243.497925 329.694427,248.382080 332.012939,253.659241 
	C328.597473,255.289337 325.171539,256.538605 321.385803,257.804993 
z" data-index="37" style="visibility: visible; opacity: 1;"></path>
<path fill="#0589C7" opacity="1.000000" stroke="none" d="
M244.989243,373.303101 
	C248.721710,372.206360 252.454178,371.109619 256.883392,370.158417 
	C260.149353,375.067810 262.876831,379.754791 265.240875,384.618408 
	C267.380798,389.020996 269.124115,393.616364 271.042297,398.126709 
	C267.005646,399.540710 262.968964,400.954712 258.474335,402.007507 
	C256.393219,398.204407 254.738251,394.777039 253.154053,391.317261 
	C250.409363,385.323120 247.708481,379.308899 244.989243,373.303101 
z" data-index="38" style="visibility: visible;"></path>
<path fill="#0696DB" opacity="1.000000" stroke="none" d="
M271.423340,398.106018 
	C269.124115,393.616364 267.380798,389.020996 265.240875,384.618408 
	C262.876831,379.754791 260.149353,375.067810 257.270447,370.146912 
	C261.344421,368.222198 265.728088,366.454498 270.475037,364.572144 
	C275.193695,373.684052 279.549133,382.910583 283.948608,392.485565 
	C279.929901,394.584442 275.867126,396.334869 271.423340,398.106018 
z" data-index="39" style="visibility: visible; opacity: 1;"></path>
<path fill="#037DB7" opacity="1.000000" stroke="none" d="
M244.614624,373.309967 
	C247.708481,379.308899 250.409363,385.323120 253.154053,391.317261 
	C254.738251,394.777039 256.393219,398.204407 258.069489,402.039795 
	C253.986893,403.525513 249.851151,404.617767 245.331650,405.676208 
	C244.388184,403.616241 244.056229,401.491516 243.228851,399.581329 
	C239.894791,391.883850 236.407715,384.252594 232.949020,376.204163 
	C236.693909,374.979919 240.466965,374.148376 244.614624,373.309967 
z" data-index="40" style="visibility: visible;"></path>
<path fill="#037DB7" opacity="1.000000" stroke="none" d="
M346.382965,250.934265 
	C347.212006,250.601242 348.419464,250.320938 350.026855,250.078217 
	C349.204987,250.406189 347.983185,250.696579 346.382965,250.934265 
z" data-index="41" style="visibility: visible;"></path>
</svg>